<mxfile host="65bd71144e">
    <diagram id="L4pZQJ-xtuJWBW6fjtu4" name="Page-1">
        <mxGraphModel dx="752" dy="517" grid="0" gridSize="10" guides="1" tooltips="1" connect="1" arrows="1" fold="1" page="1" pageScale="1" pageWidth="4681" pageHeight="3300" math="0" shadow="0">
            <root>
                <mxCell id="0"/>
                <mxCell id="1" parent="0"/>
                <mxCell id="2" value="" style="endArrow=classic;html=1;" edge="1" parent="1">
                    <mxGeometry width="50" height="50" relative="1" as="geometry">
                        <mxPoint x="40" y="240" as="sourcePoint"/>
                        <mxPoint x="320" y="240" as="targetPoint"/>
                    </mxGeometry>
                </mxCell>
                <mxCell id="3" value="" style="endArrow=classic;html=1;" edge="1" parent="1">
                    <mxGeometry width="50" height="50" relative="1" as="geometry">
                        <mxPoint x="40" y="240" as="sourcePoint"/>
                        <mxPoint x="40" y="40" as="targetPoint"/>
                    </mxGeometry>
                </mxCell>
                <mxCell id="4" value="" style="endArrow=none;html=1;edgeStyle=orthogonalEdgeStyle;curved=1;" edge="1" parent="1">
                    <mxGeometry width="50" height="50" relative="1" as="geometry">
                        <mxPoint x="40" y="210" as="sourcePoint"/>
                        <mxPoint x="320" y="50" as="targetPoint"/>
                    </mxGeometry>
                </mxCell>
                <mxCell id="5" value="" style="shape=waypoint;sketch=0;fillStyle=solid;size=6;pointerEvents=1;points=[];fillColor=#f8cecc;resizable=0;rotatable=0;perimeter=centerPerimeter;snapToPoint=1;strokeColor=#b85450;" vertex="1" parent="1">
                    <mxGeometry x="190" y="180" width="20" height="20" as="geometry"/>
                </mxCell>
                <mxCell id="7" value="" style="shape=waypoint;sketch=0;fillStyle=solid;size=6;pointerEvents=1;points=[];fillColor=#f8cecc;resizable=0;rotatable=0;perimeter=centerPerimeter;snapToPoint=1;strokeColor=#b85450;" vertex="1" parent="1">
                    <mxGeometry x="220" y="170" width="20" height="20" as="geometry"/>
                </mxCell>
                <mxCell id="8" value="" style="shape=crossbar;whiteSpace=wrap;html=1;rounded=1;" vertex="1" parent="1">
                    <mxGeometry x="200" y="210" width="30" height="10" as="geometry"/>
                </mxCell>
                <mxCell id="15" value="" style="shape=crossbar;whiteSpace=wrap;html=1;rounded=1;direction=south;" vertex="1" parent="1">
                    <mxGeometry x="250" y="180" width="10" height="10" as="geometry"/>
                </mxCell>
                <mxCell id="16" value="" style="line;strokeWidth=0.5;html=1;dashed=1;" vertex="1" parent="1">
                    <mxGeometry x="230" y="175" width="20" height="10" as="geometry"/>
                </mxCell>
                <mxCell id="21" value="" style="line;strokeWidth=0.5;html=1;dashed=1;" vertex="1" parent="1">
                    <mxGeometry x="200" y="185" width="50" height="10" as="geometry"/>
                </mxCell>
                <mxCell id="22" value="" style="line;strokeWidth=0.5;html=1;dashed=1;direction=south;" vertex="1" parent="1">
                    <mxGeometry x="195" y="190" width="10" height="20" as="geometry"/>
                </mxCell>
                <mxCell id="23" value="" style="line;strokeWidth=0.5;html=1;dashed=1;direction=south;" vertex="1" parent="1">
                    <mxGeometry x="225" y="180" width="10" height="30" as="geometry"/>
                </mxCell>
                <mxCell id="26" value="Δx" style="text;html=1;strokeColor=none;fillColor=none;align=center;verticalAlign=middle;whiteSpace=wrap;rounded=0;dashed=1;strokeWidth=1;" vertex="1" parent="1">
                    <mxGeometry x="195" y="210" width="40" height="30" as="geometry"/>
                </mxCell>
                <mxCell id="27" value="Δy" style="text;html=1;strokeColor=none;fillColor=none;align=center;verticalAlign=middle;whiteSpace=wrap;rounded=0;dashed=1;strokeWidth=1;" vertex="1" parent="1">
                    <mxGeometry x="250" y="170" width="40" height="30" as="geometry"/>
                </mxCell>
                <mxCell id="28" value="" style="endArrow=none;html=1;curved=1;fillColor=#f8cecc;strokeColor=#b85450;" edge="1" parent="1">
                    <mxGeometry width="50" height="50" relative="1" as="geometry">
                        <mxPoint x="50" y="240" as="sourcePoint"/>
                        <mxPoint x="320" y="150" as="targetPoint"/>
                    </mxGeometry>
                </mxCell>
            </root>
        </mxGraphModel>
    </diagram>
</mxfile>